<svg version="1.1" xmlns="http://www.w3.org/2000/svg" xmlns:xlink="http://www.w3.org/1999/xlink" width="24px" height="24px" viewBox="0,0,256,256"><g fill="none" fill-rule="nonzero" stroke="none" stroke-width="1" stroke-linecap="butt" stroke-linejoin="miter" stroke-miterlimit="10" stroke-dasharray="" stroke-dashoffset="0" font-family="none" font-weight="none" font-size="none" text-anchor="none" style="mix-blend-mode: normal"><g transform="scale(10.66667,10.66667)"><path d="M0,0h24v24h-24z" fill="none"></path><path d="M4,13h6c0.55,0 1,-0.45 1,-1v-8c0,-0.55 -0.45,-1 -1,-1h-6c-0.55,0 -1,0.45 -1,1v8c0,0.55 0.45,1 1,1zM4,21h6c0.55,0 1,-0.45 1,-1v-4c0,-0.55 -0.45,-1 -1,-1h-6c-0.55,0 -1,0.45 -1,1v4c0,0.55 0.45,1 1,1zM14,21h6c0.55,0 1,-0.45 1,-1v-8c0,-0.55 -0.45,-1 -1,-1h-6c-0.55,0 -1,0.45 -1,1v8c0,0.55 0.45,1 1,1zM13,4v4c0,0.55 0.45,1 1,1h6c0.55,0 1,-0.45 1,-1v-4c0,-0.55 -0.45,-1 -1,-1h-6c-0.55,0 -1,0.45 -1,1z" fill="#20e2d7"></path></g></g></svg>