<svg version="1.1" xmlns="http://www.w3.org/2000/svg" xmlns:xlink="http://www.w3.org/1999/xlink" width="24px" height="24px" viewBox="0,0,256,256"><g fill="none" fill-rule="nonzero" stroke="none" stroke-width="1" stroke-linecap="butt" stroke-linejoin="miter" stroke-miterlimit="10" stroke-dasharray="" stroke-dashoffset="0" font-family="none" font-weight="none" font-size="none" text-anchor="none" style="mix-blend-mode: normal"><g transform="scale(10.66667,10.66667)"><path d="M0,0h24v24h-24z" fill="none"></path><path d="M11.99,2c-5.52,0 -9.99,4.48 -9.99,10c0,5.52 4.47,10 9.99,10c5.53,0 10.01,-4.48 10.01,-10c0,-5.52 -4.48,-10 -10.01,-10zM18.92,8h-2.95c-0.32,-1.25 -0.78,-2.45 -1.38,-3.56c1.84,0.63 3.37,1.91 4.33,3.56zM12,4.04c0.83,1.2 1.48,2.53 1.91,3.96h-3.82c0.43,-1.43 1.08,-2.76 1.91,-3.96zM4.26,14c-0.16,-0.64 -0.26,-1.31 -0.26,-2c0,-0.69 0.1,-1.36 0.26,-2h3.38c-0.08,0.66 -0.14,1.32 -0.14,2c0,0.68 0.06,1.34 0.14,2zM5.08,16h2.95c0.32,1.25 0.78,2.45 1.38,3.56c-1.84,-0.63 -3.37,-1.9 -4.33,-3.56zM8.03,8h-2.95c0.96,-1.66 2.49,-2.93 4.33,-3.56c-0.6,1.11 -1.06,2.31 -1.38,3.56zM12,19.96c-0.83,-1.2 -1.48,-2.53 -1.91,-3.96h3.82c-0.43,1.43 -1.08,2.76 -1.91,3.96zM14.34,14h-4.68c-0.09,-0.66 -0.16,-1.32 -0.16,-2c0,-0.68 0.07,-1.35 0.16,-2h4.68c0.09,0.65 0.16,1.32 0.16,2c0,0.68 -0.07,1.34 -0.16,2zM14.59,19.56c0.6,-1.11 1.06,-2.31 1.38,-3.56h2.95c-0.96,1.65 -2.49,2.93 -4.33,3.56zM16.36,14c0.08,-0.66 0.14,-1.32 0.14,-2c0,-0.68 -0.06,-1.34 -0.14,-2h3.38c0.16,0.64 0.26,1.31 0.26,2c0,0.69 -0.1,1.36 -0.26,2z" fill="#ffffff"></path></g></g></svg>