<svg version="1.1" xmlns="http://www.w3.org/2000/svg" xmlns:xlink="http://www.w3.org/1999/xlink" width="48" height="48" viewBox="0,0,256,256"><g fill="#ffffff" fill-rule="nonzero" stroke="none" stroke-width="1" stroke-linecap="butt" stroke-linejoin="miter" stroke-miterlimit="10" stroke-dasharray="" stroke-dashoffset="0" font-family="none" font-weight="none" font-size="none" text-anchor="none" style="mix-blend-mode: normal"><g transform="translate(2.53333,256.13333) scale(0.26667,0.26667)"><path d="M768,-120l-251,-251l57,-57l251,251zM187,-120l-57,-57l290,-290l-107,-107l-23,23l-44,-44v85l-24,24l-122,-122l24,-24h86l-48,-48l131,-131c11.33333,-11.33333 23.66667,-19 37,-23c13.33333,-4 28,-6 44,-6c16,0 30.66667,2.83333 44,8.5c13.33333,5.66667 25.66667,14.16667 37,25.5l-107,107l48,48l-24,24l104,104l122,-122c-5.33333,-8.66667 -9.5,-18.66667 -12.5,-30c-3,-11.33333 -4.5,-23.33333 -4.5,-36c0,-35.33333 12.83333,-65.83333 38.5,-91.5c25.66667,-25.66667 56.16667,-38.5 91.5,-38.5c10,0 18.5,1 25.5,3c7,2 12.83333,4.66667 17.5,8l-85,85l75,75l85,-85c3.33333,5.33333 6.16667,11.83333 8.5,19.5c2.33333,7.66667 3.5,16.5 3.5,26.5c0,35.33333 -12.83333,65.83333 -38.5,91.5c-25.66667,25.66667 -56.16667,38.5 -91.5,38.5c-12,0 -22.33333,-0.83333 -31,-2.5c-8.66667,-1.66667 -16.66667,-4.16667 -24,-7.5z"></path></g></g></svg>