<svg version="1.1" xmlns="http://www.w3.org/2000/svg" xmlns:xlink="http://www.w3.org/1999/xlink" width="24px" height="24px" viewBox="0,0,256,256"><g fill="none" fill-rule="nonzero" stroke="none" stroke-width="1" stroke-linecap="butt" stroke-linejoin="miter" stroke-miterlimit="10" stroke-dasharray="" stroke-dashoffset="0" font-family="none" font-weight="none" font-size="none" text-anchor="none" style="mix-blend-mode: normal"><g transform="scale(10.66667,10.66667)"><rect x="0" y="0" width="24" height="24" fill="none"></rect><path d="M19.5,12c0,-0.23 -0.01,-0.45 -0.03,-0.68l1.86,-1.41c0.4,-0.3 0.51,-0.86 0.26,-1.3l-1.87,-3.23c-0.25,-0.44 -0.79,-0.62 -1.25,-0.42l-2.15,0.91c-0.37,-0.26 -0.76,-0.49 -1.17,-0.68l-0.29,-2.31c-0.06,-0.5 -0.49,-0.88 -0.99,-0.88h-3.73c-0.51,0 -0.94,0.38 -1,0.88l-0.29,2.31c-0.41,0.19 -0.8,0.42 -1.17,0.68l-2.15,-0.91c-0.46,-0.2 -1,-0.02 -1.25,0.42l-1.87,3.24c-0.25,0.44 -0.14,0.99 0.26,1.3l1.86,1.41c-0.02,0.22 -0.03,0.44 -0.03,0.67c0,0.23 0.01,0.45 0.03,0.68l-1.86,1.41c-0.4,0.3 -0.51,0.86 -0.26,1.3l1.87,3.23c0.25,0.44 0.79,0.62 1.25,0.42l2.15,-0.91c0.37,0.26 0.76,0.49 1.17,0.68l0.29,2.31c0.06,0.5 0.49,0.88 0.99,0.88h3.73c0.5,0 0.93,-0.38 0.99,-0.88l0.29,-2.31c0.41,-0.19 0.8,-0.42 1.17,-0.68l2.15,0.91c0.46,0.2 1,0.02 1.25,-0.42l1.87,-3.23c0.25,-0.44 0.14,-0.99 -0.26,-1.3l-1.86,-1.41c0.03,-0.23 0.04,-0.45 0.04,-0.68zM12.04,15.5c-1.93,0 -3.5,-1.57 -3.5,-3.5c0,-1.93 1.57,-3.5 3.5,-3.5c1.93,0 3.5,1.57 3.5,3.5c0,1.93 -1.57,3.5 -3.5,3.5z" fill="#ffffff"></path></g></g></svg>